<svg width="32" height="21" viewBox="0 0 32 21" fill="none" xmlns="http://www.w3.org/2000/svg">
<path d="M0.71 21V-1.43051e-06H7.79V21H0.71Z" fill="white"/>
<path d="M11.1983 21V-1.43051e-06H21.3083C23.2683 -1.43051e-06 24.9583 0.319999 26.3783 0.959999C27.8183 1.6 28.9283 2.52 29.7083 3.72C30.4883 4.9 30.8783 6.3 30.8783 7.92C30.8783 9.54 30.4883 10.94 29.7083 12.12C28.9283 13.28 27.8183 14.17 26.3783 14.79C24.9583 15.41 23.2683 15.72 21.3083 15.72H15.1283L18.2783 12.81V21H11.1983ZM23.7683 21L18.6083 13.35H26.1083L31.3283 21H23.7683ZM18.2783 13.59L15.1283 10.38H20.8583C21.8383 10.38 22.5583 10.16 23.0183 9.72C23.4983 9.28 23.7383 8.68 23.7383 7.92C23.7383 7.16 23.4983 6.56 23.0183 6.12C22.5583 5.68 21.8383 5.46 20.8583 5.46H15.1283L18.2783 2.25V13.59Z" fill="#CD00FF"/>
</svg>
