<svg width="100" height="100" viewBox="0 0 100 100" fill="none" xmlns="http://www.w3.org/2000/svg">
<circle cx="50" cy="50" r="50" fill="black"/>
<path d="M31.76 65V37H36.96V65H31.76ZM44.5334 65V37H56.0534C58.5334 37 60.6534 37.4 62.4134 38.2C64.2001 39 65.5734 40.1467 66.5334 41.64C67.4934 43.1333 67.9734 44.9067 67.9734 46.96C67.9734 49.0133 67.4934 50.7867 66.5334 52.28C65.5734 53.7467 64.2001 54.88 62.4134 55.68C60.6534 56.4533 58.5334 56.84 56.0534 56.84H47.4134L49.7334 54.48V65H44.5334ZM62.8534 65L55.7734 54.84H61.3334L68.4534 65H62.8534ZM49.7334 55.04L47.4134 52.56H55.8134C58.1068 52.56 59.8268 52.0667 60.9734 51.08C62.1468 50.0933 62.7334 48.72 62.7334 46.96C62.7334 45.1733 62.1468 43.8 60.9734 42.84C59.8268 41.88 58.1068 41.4 55.8134 41.4H47.4134L49.7334 38.84V55.04Z" fill="white"/>
</svg>
