<svg width="129" height="26" viewBox="0 0 129 26" fill="none" xmlns="http://www.w3.org/2000/svg">
<path d="M0.71 25V4H7.79V25H0.71ZM18.9083 25.3C16.6483 25.3 14.8883 24.76 13.6283 23.68C12.3683 22.58 11.7383 20.9 11.7383 18.64V4.9H18.5183V18.58C18.5183 19.08 18.6483 19.47 18.9083 19.75C19.1883 20.03 19.5283 20.17 19.9283 20.17C20.5083 20.17 21.0183 20.02 21.4583 19.72L23.0783 24.43C22.5583 24.73 21.9283 24.95 21.1883 25.09C20.4683 25.23 19.7083 25.3 18.9083 25.3ZM9.48828 14.44V9.49H21.8783V14.44H9.48828Z" fill="white"/>
<path d="M24.9971 25V4H35.1071C37.0671 4 38.7571 4.32 40.1771 4.96C41.6171 5.6 42.7271 6.52 43.5071 7.72C44.2871 8.9 44.6771 10.3 44.6771 11.92C44.6771 13.54 44.2871 14.94 43.5071 16.12C42.7271 17.28 41.6171 18.17 40.1771 18.79C38.7571 19.41 37.0671 19.72 35.1071 19.72H28.9271L32.0771 16.81V25H24.9971ZM37.5671 25L32.4071 17.35H39.9071L45.1271 25H37.5671ZM32.0771 17.59L28.9271 14.38H34.6571C35.6371 14.38 36.3571 14.16 36.8171 13.72C37.2971 13.28 37.5371 12.68 37.5371 11.92C37.5371 11.16 37.2971 10.56 36.8171 10.12C36.3571 9.68 35.6371 9.46 34.6571 9.46H28.9271L32.0771 6.25V17.59ZM55.8106 25.3C53.9506 25.3 52.3006 24.94 50.8606 24.22C49.4406 23.48 48.3206 22.47 47.5006 21.19C46.6806 19.91 46.2706 18.44 46.2706 16.78C46.2706 15.12 46.6806 13.65 47.5006 12.37C48.3206 11.09 49.4406 10.09 50.8606 9.37C52.3006 8.65 53.9506 8.29 55.8106 8.29C57.6706 8.29 59.3206 8.65 60.7606 9.37C62.2006 10.09 63.3206 11.09 64.1206 12.37C64.9406 13.65 65.3506 15.12 65.3506 16.78C65.3506 18.44 64.9406 19.91 64.1206 21.19C63.3206 22.47 62.2006 23.48 60.7606 24.22C59.3206 24.94 57.6706 25.3 55.8106 25.3ZM55.8106 20.02C56.3106 20.02 56.7606 19.9 57.1606 19.66C57.5606 19.42 57.8806 19.06 58.1206 18.58C58.3606 18.08 58.4806 17.48 58.4806 16.78C58.4806 16.06 58.3606 15.47 58.1206 15.01C57.8806 14.53 57.5606 14.17 57.1606 13.93C56.7606 13.69 56.3106 13.57 55.8106 13.57C55.3106 13.57 54.8606 13.69 54.4606 13.93C54.0606 14.17 53.7406 14.53 53.5006 15.01C53.2606 15.47 53.1406 16.06 53.1406 16.78C53.1406 17.48 53.2606 18.08 53.5006 18.58C53.7406 19.06 54.0606 19.42 54.4606 19.66C54.8606 19.9 55.3106 20.02 55.8106 20.02ZM73.8927 25.3C72.4927 25.3 71.1127 25.15 69.7527 24.85C68.3927 24.55 67.2927 24.16 66.4527 23.68L68.3127 19.21C69.0927 19.67 69.9927 20.03 71.0127 20.29C72.0527 20.55 73.0627 20.68 74.0427 20.68C74.8627 20.68 75.4127 20.61 75.6927 20.47C75.9927 20.33 76.1427 20.14 76.1427 19.9C76.1427 19.66 75.9727 19.49 75.6327 19.39C75.2927 19.27 74.8427 19.18 74.2827 19.12C73.7227 19.06 73.1027 18.99 72.4227 18.91C71.7627 18.81 71.0927 18.67 70.4127 18.49C69.7327 18.31 69.1127 18.04 68.5527 17.68C67.9927 17.32 67.5427 16.84 67.2027 16.24C66.8627 15.62 66.6927 14.84 66.6927 13.9C66.6927 12.86 67.0027 11.92 67.6227 11.08C68.2627 10.24 69.2027 9.57 70.4427 9.07C71.7027 8.55 73.2527 8.29 75.0927 8.29C76.2927 8.29 77.4927 8.4 78.6927 8.62C79.8927 8.84 80.9227 9.18 81.7827 9.64L79.9227 14.11C79.0827 13.65 78.2527 13.34 77.4327 13.18C76.6327 13 75.8827 12.91 75.1827 12.91C74.3227 12.91 73.7327 12.99 73.4127 13.15C73.1127 13.31 72.9627 13.49 72.9627 13.69C72.9627 13.93 73.1327 14.11 73.4727 14.23C73.8127 14.35 74.2627 14.44 74.8227 14.5C75.3827 14.56 75.9927 14.64 76.6527 14.74C77.3327 14.82 78.0027 14.96 78.6627 15.16C79.3427 15.34 79.9627 15.61 80.5227 15.97C81.0827 16.33 81.5327 16.82 81.8727 17.44C82.2127 18.04 82.3827 18.81 82.3827 19.75C82.3827 20.73 82.0727 21.65 81.4527 22.51C80.8327 23.35 79.8927 24.03 78.6327 24.55C77.3727 25.05 75.7927 25.3 73.8927 25.3ZM92.3555 25.3C90.0955 25.3 88.3355 24.76 87.0755 23.68C85.8155 22.58 85.1855 20.9 85.1855 18.64V4.9H91.9655V18.58C91.9655 19.08 92.0955 19.47 92.3555 19.75C92.6355 20.03 92.9755 20.17 93.3755 20.17C93.9555 20.17 94.4655 20.02 94.9055 19.72L96.5255 24.43C96.0055 24.73 95.3755 24.95 94.6355 25.09C93.9155 25.23 93.1555 25.3 92.3555 25.3ZM82.9355 14.44V9.49H95.3255V14.44H82.9355ZM98.2344 25V8.59H105.014V25H98.2344ZM101.624 7.27C100.384 7.27 99.3944 6.94 98.6544 6.28C97.9144 5.62 97.5444 4.8 97.5444 3.82C97.5444 2.84 97.9144 2.02 98.6544 1.36C99.3944 0.699999 100.384 0.369999 101.624 0.369999C102.864 0.369999 103.854 0.679999 104.594 1.3C105.334 1.92 105.704 2.72 105.704 3.7C105.704 4.74 105.334 5.6 104.594 6.28C103.854 6.94 102.864 7.27 101.624 7.27ZM113.69 22.3L113.84 14.32L119.51 8.59H127.52L120.02 16.45L116.63 19.18L113.69 22.3ZM108.02 25V2.74H114.8V25H108.02ZM119.87 25L115.37 19.3L119.54 14.17L128.06 25H119.87Z" fill="#CD00FF"/>
</svg>
