<svg width="60" height="60" viewBox="0 0 60 60" fill="none" xmlns="http://www.w3.org/2000/svg">
<path d="M36.7131 45.8573C45.3167 44.9181 53.4278 40.4128 57.8938 32.8928C55.7789 51.4923 35.0843 63.2484 18.1923 56.0306C16.6358 55.3672 15.296 54.2639 14.3766 52.8453C10.5804 46.987 9.33261 39.5326 11.1256 32.7681C16.2483 41.457 26.6645 46.7833 36.7131 45.8573Z" fill="#FFAC00"/>
<path d="M10.8116 27.3101C7.32418 35.2306 7.17313 44.5041 11.4487 52.1357C-3.5978 41.0101 -3.43362 17.2024 11.2648 6.18851C12.6243 5.17051 14.2399 4.56629 15.9343 4.47434C22.9025 4.11312 29.9825 6.75989 34.9476 11.6922C24.8598 11.7907 15.0346 18.1416 10.8116 27.3101Z" fill="#9A1879"/>
<path d="M39.814 14.1289C34.724 7.15402 26.7575 2.40562 18.0292 2.26114C34.9015 -5.26538 55.6551 6.93729 57.9144 24.9785C58.1246 26.6533 57.8488 28.3609 57.0935 29.8715C53.941 36.1633 48.0959 41.0431 41.2655 42.8491C46.27 33.7267 45.6526 22.5815 39.814 14.1289Z" fill="#FF001C"/>
</svg>
