<svg width="60" height="50" viewBox="0 0 60 50" fill="none" xmlns="http://www.w3.org/2000/svg">
<g clip-path="url(#clip0_96_468)">
<path d="M45.8495 17.713H45.3051C44.632 17.713 43.9979 18.0269 43.5887 18.561L38.0167 25.8476L32.4446 18.561C32.0367 18.0269 31.402 17.713 30.7295 17.713H30.1851L37.2116 26.9011L30.0346 36.2864H30.579C31.2521 36.2864 31.8862 35.9726 32.2948 35.4385L38.0173 27.9553L43.7398 35.4385C44.1484 35.9726 44.7825 36.2864 45.4556 36.2864H46L38.823 26.9011L45.8495 17.713ZM27.6348 32.5986C25.999 35.0843 22.7788 36.3582 19.7001 35.2348C16.9916 34.2466 15.2809 31.5541 15.2809 28.6707V27.9604H22.9665H30.0115V25.3128C30.0115 21.1466 26.9258 17.4991 22.7775 17.1091C18.0176 16.6614 14 20.4094 14 25.0784V28.6476C14 32.0876 16.0591 35.2854 19.296 36.4504C23.5249 37.9721 27.9729 35.701 29.4767 31.8032H29.0681C28.4847 31.8032 27.955 32.1113 27.6348 32.5986ZM15.2809 25.0784C15.2809 21.3701 18.2975 18.3535 22.0058 18.3535C25.714 18.3535 28.7306 21.3701 28.7306 25.0784V26.6795H15.2809V25.0784Z" fill="white"/>
</g>
<defs>
<clipPath id="clip0_96_468">
<rect width="32" height="20" fill="white" transform="translate(14 17)"/>
</clipPath>
</defs>
</svg>
