<svg width="100" height="100" viewBox="0 0 100 100" fill="none" xmlns="http://www.w3.org/2000/svg">
<rect width="100" height="100" rx="50" fill="#CD00FF"/>
<path d="M40.5119 55.7143V45.2102H41.1057V46.8626C41.1759 46.7894 41.2407 46.7116 41.2996 46.6299C41.5423 46.1462 41.9235 45.739 42.3986 45.456C42.8736 45.1729 43.4229 45.0258 43.9819 45.0318C45.3352 44.993 46.4339 45.474 47.0803 46.6299C47.4915 47.3479 47.7178 48.1501 47.7403 48.9693C47.7628 49.7885 47.5808 50.601 47.2095 51.3389C46.6076 52.6344 45.1211 53.2783 43.5295 53.0417C43.0342 53.0012 42.5574 52.8423 42.1425 52.5794C41.7276 52.3165 41.3878 51.958 41.1542 51.5367V55.7143H40.5119ZM41.1057 48.9262C41.1583 49.4382 41.1785 49.8028 41.2391 50.1597C41.4734 51.5638 42.3378 52.3978 43.6951 52.5491C44.3324 52.6497 44.9863 52.535 45.5454 52.2244C46.1045 51.9139 46.5342 51.4269 46.7611 50.8462C47.022 50.249 47.1475 49.6054 47.1294 48.958C47.1113 48.3106 46.95 47.6744 46.6561 47.0915C46.4138 46.5711 46.0018 46.1405 45.4822 45.8648C44.9626 45.5891 44.3637 45.4832 43.7759 45.5632C43.224 45.6016 42.6984 45.8041 42.2719 46.1427C41.8455 46.4812 41.5396 46.9389 41.3966 47.4522C41.2701 47.9377 41.173 48.4299 41.1057 48.9262ZM59.8534 50.3536C59.7634 51.0932 59.3968 51.7762 58.8217 52.2757C58.2465 52.7751 57.5021 53.057 56.7268 53.0689C54.2384 53.1891 53.0709 51.6026 52.8851 49.7718C52.7562 48.7775 52.9243 47.7686 53.3699 46.8626C53.6802 46.2412 54.1884 45.7307 54.821 45.405C55.4535 45.0793 56.1776 44.9554 56.8883 45.0512C57.5641 45.1061 58.2047 45.3639 58.7194 45.7878C59.2341 46.2118 59.5969 46.7805 59.7564 47.4134C59.8829 47.9899 59.9759 48.5726 60.0352 49.1589H53.4951C53.3739 50.8191 54.303 52.1534 55.6199 52.4754C57.26 52.8633 58.6617 52.1806 59.1707 50.6833C59.2838 50.2993 59.4898 50.245 59.8534 50.3536ZM53.4951 48.6275H59.3404C59.304 46.8587 58.1568 45.5787 56.6015 45.5593C54.8403 45.5321 53.5719 46.7656 53.4951 48.6275ZM61.0572 50.3924H61.6308C61.652 50.7977 61.7891 51.1896 62.0272 51.5249C62.2652 51.8602 62.5949 52.126 62.98 52.2931C63.4636 52.5021 63.9901 52.6036 64.5202 52.5902C65.0504 52.5768 65.5705 52.4487 66.042 52.2155C66.2989 52.1043 66.5141 51.9201 66.6586 51.6877C66.8031 51.4553 66.8699 51.186 66.8499 50.9161C66.8647 50.6557 66.7906 50.3978 66.639 50.1815C66.4874 49.9652 66.2664 49.8023 66.0097 49.7175C65.3795 49.4925 64.7089 49.3684 64.0666 49.1706C63.3984 48.9878 62.7449 48.7583 62.1115 48.484C61.0774 47.9991 61.0127 46.1101 62.1842 45.5127C62.7841 45.1877 63.4591 45.0121 64.1478 45.0019C64.8365 44.9918 65.5169 45.1474 66.1268 45.4546C66.4963 45.6506 66.7948 45.9502 66.9824 46.3134C67.1701 46.6765 67.238 47.086 67.1771 47.4871H66.6843C66.6843 47.4638 66.6399 47.4444 66.6399 47.4212C66.5793 45.9123 65.2624 45.4468 63.8485 45.5787C63.4264 45.6287 63.0165 45.7481 62.6366 45.9317C62.4084 46.0319 62.2182 46.1977 62.0923 46.4061C61.9664 46.6145 61.911 46.8554 61.9338 47.0953C61.9345 47.3354 62.0125 47.5694 62.1571 47.7653C62.3018 47.9611 62.5059 48.1092 62.7417 48.1892C63.3638 48.4064 64.0141 48.5461 64.6524 48.7167C65.1654 48.8525 65.6986 48.9417 66.1955 49.1046C66.5462 49.215 66.8537 49.4251 67.0773 49.707C67.3009 49.9889 67.4301 50.3294 67.4478 50.6833C67.5077 51.0712 67.4389 51.4673 67.2511 51.8154C67.0633 52.1636 66.766 52.4461 66.4015 52.6228C65.0523 53.3559 62.8305 53.162 61.8408 52.2349C61.59 51.9927 61.3916 51.7051 61.2571 51.3889C61.1226 51.0727 61.0547 50.734 61.0572 50.3924ZM74.719 47.4871H74.1817C74.1817 47.4173 74.1534 47.3552 74.1454 47.297C74.1367 46.9103 73.9898 46.5382 73.7295 46.2431C73.4692 45.9479 73.1111 45.7476 72.7154 45.6757C71.9686 45.4699 71.1719 45.5067 70.4492 45.7804C70.1635 45.859 69.912 46.0243 69.7321 46.2515C69.5523 46.4787 69.4538 46.7557 69.4514 47.041C69.4413 47.3213 69.5323 47.5963 69.7089 47.8196C69.8856 48.0429 70.137 48.2009 70.4209 48.2668C71.2288 48.5073 72.0569 48.6547 72.8769 48.8719C73.1427 48.9331 73.4044 49.0095 73.6606 49.1007C74.0433 49.2322 74.3757 49.4714 74.6145 49.7872C74.8533 50.103 74.9874 50.4805 74.9992 50.8706C75.0109 51.2607 74.8999 51.6451 74.6805 51.9736C74.4612 52.3021 74.1438 52.5595 73.7697 52.712C73.1996 52.9606 72.5818 53.0921 71.9557 53.0981C71.3297 53.1041 70.7092 52.9845 70.1341 52.7469C69.6611 52.551 69.262 52.2208 68.9905 51.8005C68.7189 51.3802 68.5879 50.8902 68.6152 50.3963H68.8414H69.1403C69.2375 50.8464 69.4474 51.2669 69.752 51.6215C70.0565 51.9761 70.4465 52.2541 70.8881 52.4313C71.3298 52.6086 71.8098 52.6798 72.2865 52.6389C72.7633 52.5979 73.2224 52.4459 73.6243 52.1961C73.869 52.074 74.0722 51.887 74.2097 51.6574C74.3471 51.4278 74.4131 51.1651 74.3999 50.9006C74.412 50.6401 74.3354 50.3828 74.1816 50.1679C74.0278 49.953 73.8051 49.7922 73.5475 49.7097C72.9173 49.4848 72.2468 49.3645 71.6045 49.1667C70.9324 48.9868 70.2749 48.7599 69.6372 48.4879C68.6273 48.0108 68.5465 46.1372 69.6978 45.5399C70.3051 45.2012 70.9933 45.0193 71.6956 45.0118C72.3978 45.0044 73.0901 45.1716 73.7051 45.4972C74.0567 45.6988 74.3398 45.9943 74.5199 46.3475C74.6999 46.7008 74.7691 47.0968 74.719 47.4871ZM39.5303 52.8788C39.3188 52.9557 39.0853 52.9555 38.8739 52.8784C38.6625 52.8012 38.4879 52.6523 38.3831 52.4599C37.7246 51.5134 36.9975 50.6096 36.2987 49.6865L35.9957 49.2986C35.1635 50.3691 34.3314 51.3971 33.572 52.4638C33.473 52.6477 33.3078 52.7907 33.1072 52.8664C32.9065 52.942 32.6841 52.9451 32.4813 52.8749L35.6039 48.8525L32.6994 45.2179C32.9085 45.1455 33.1372 45.1445 33.3469 45.2151C33.5567 45.2858 33.7346 45.4238 33.8507 45.6058C34.5253 46.5523 35.2726 47.4561 36.0159 48.4142C36.7632 47.4638 37.5025 46.5562 38.1932 45.6175C38.2927 45.4366 38.458 45.2971 38.6576 45.2256C38.8572 45.154 39.0772 45.1555 39.2758 45.2296L38.1488 46.6648C37.6438 47.3048 37.147 47.9487 36.6218 48.5732C36.5795 48.6096 36.5457 48.6541 36.5225 48.7039C36.4993 48.7537 36.4873 48.8076 36.4873 48.8622C36.4873 48.9167 36.4993 48.9707 36.5225 49.0204C36.5457 49.0702 36.5795 49.1148 36.6218 49.1512C37.5873 50.3808 38.5447 51.6143 39.5303 52.8788ZM52.7882 45.1792V45.7222C52.3796 45.6965 51.97 45.7533 51.5857 45.889C51.2014 46.0247 50.851 46.2362 50.5572 46.51C50.2633 46.7838 50.0325 47.1137 49.8796 47.4784C49.7267 47.8431 49.6552 48.2346 49.6696 48.6275C49.6696 49.905 49.6696 51.1824 49.6696 52.4599C49.6696 52.5956 49.6696 52.7314 49.6696 52.8943H49.092V45.2102H49.6575V46.785C50.3564 45.6369 51.4349 45.2102 52.7882 45.1792ZM25 48.8021C25.0848 48.4142 25.1373 47.9914 25.2545 47.5957C25.9533 45.2102 28.8012 44.2172 30.7604 45.6951C31.9077 46.5601 32.1945 47.7858 32.1379 49.1667H25.6746C25.5696 51.6337 27.4237 53.1232 29.795 52.3629C30.1796 52.2308 30.5239 52.0088 30.7969 51.7169C31.0698 51.425 31.2627 51.0725 31.3583 50.6911C31.4835 50.3032 31.6855 50.2373 32.0692 50.3497C32.006 50.822 31.8321 51.2743 31.5607 51.6727C31.2892 52.0711 30.9272 52.4052 30.5019 52.6499C29.7992 53.0189 28.9929 53.1651 28.1985 53.0676C27.404 52.9701 26.662 52.6338 26.0786 52.1069C25.5014 51.4837 25.1524 50.6963 25.0848 49.8649C25.0848 49.733 25.0323 49.6011 25.004 49.477C25.0013 49.2468 25 49.0219 25 48.8021ZM25.6827 48.6353H31.5279C31.4916 46.8471 30.3161 45.5787 28.7487 45.567C27.0036 45.5438 25.7554 46.785 25.6786 48.6275L25.6827 48.6353Z" fill="black"/>
</svg>
