<svg width="100" height="100" viewBox="0 0 100 100" fill="none" xmlns="http://www.w3.org/2000/svg">
<path fill-rule="evenodd" clip-rule="evenodd" d="M28.879 27.7023C29.5642 34.9148 30.2438 42.0867 30.9392 49.4195C32.0728 47.4703 32.8931 45.6008 34.1306 44.0695C35.2829 42.643 36.7353 41.3265 38.3157 40.4148C40.379 39.2242 43.0845 40.3453 43.7532 42.457C43.9329 43.0234 43.504 43.7828 43.354 44.4539C42.8493 44.1875 42.1985 44.0406 41.8688 43.6328C40.4681 41.9008 39.6243 41.6961 38.0751 43.193C35.1853 45.9867 33.5603 49.4867 32.9399 53.4203C32.8204 54.1812 33.2962 55.0351 33.497 55.8461C34.2868 55.5742 35.204 55.4742 35.8423 54.9992C37.9173 53.4547 39.2032 51.3539 39.9126 48.843C40.0665 48.2992 40.9009 47.9484 41.4228 47.5086C41.6728 48.0226 42.2431 48.6281 42.1235 49.0351C41.0243 52.8164 39.8313 56.5734 38.5798 60.3078C38.4532 60.6859 37.7587 60.8742 37.3267 61.1508C37.1524 60.6539 36.786 60.1336 36.8446 59.6656C36.9759 58.6047 37.3173 57.5695 37.5556 56.5976L31.8993 59.2015C32.2157 62.8125 32.5438 66.8633 32.9329 70.9086C33.2313 73.9976 33.7368 74.7976 36.779 75.3836C40.329 76.0672 43.9454 76.5039 47.554 76.7695C52.886 77.1625 58.1712 76.6765 63.3587 75.282C65.2899 74.7633 66.0603 73.493 66.1985 71.5969C66.3251 69.8508 66.6079 68.1156 66.804 66.3742C67.1892 62.9437 67.5634 59.5125 67.9571 55.9383C66.6548 56.7633 65.6306 57.6867 64.4329 58.0781C63.561 58.3633 62.461 57.9461 61.4618 57.8414C61.6532 56.9242 61.6415 55.8906 62.0837 55.1172C62.804 53.8531 63.8212 52.757 64.7118 51.5898L64.3282 51.1281C63.6899 51.5055 62.897 51.7531 62.4431 52.2883C61.5196 53.3773 60.6157 54.5429 59.9978 55.8195C58.9634 57.9562 58.1751 60.2117 57.2493 62.4023C56.847 63.3523 56.5001 64.8055 55.1524 64.2508C53.711 63.6562 54.7251 62.3867 55.0634 61.4836C55.6017 60.0429 56.3126 58.6664 56.7938 57.607C55.4298 57.7695 54.047 57.9656 52.6579 58.0867C52.0704 58.1367 51.372 57.8148 50.8915 58.032C49.2938 58.7539 48.2813 58.464 47.9493 56.6953C47.2095 57.1758 46.5829 57.8265 45.8446 58.0015C44.9485 58.2148 43.7329 58.3547 43.0767 57.907C42.5509 57.5484 42.3595 56.2008 42.5392 55.4101C42.8962 53.8383 43.5634 52.3273 44.197 50.8328C44.5892 49.907 44.9837 48.4289 46.3071 49.0726C47.6149 49.7078 46.4274 50.7797 46.1259 51.6398C45.6579 52.9695 45.1813 54.2969 44.7095 55.625L45.4595 56.0781C46.1735 55.4578 47.0634 54.9523 47.5634 54.1914C48.3821 52.9476 48.8767 51.4945 49.6517 50.218C49.9728 49.689 50.6642 49.3859 51.1884 48.9805C51.2946 49.6539 51.5493 50.3461 51.4649 50.9961C51.3813 51.6531 50.9196 52.2539 50.6985 52.9039C50.3665 53.8773 50.0985 54.8726 49.761 56.0047C51.3571 56.0656 52.0407 55.3937 52.4915 54.2086C53.9181 50.464 55.3603 46.7234 56.9282 43.0367C57.1962 42.4055 58.1071 42.0492 58.722 41.5648C58.7931 42.3258 59.1321 43.1883 58.8907 43.8297C57.6056 47.2273 56.1626 50.564 54.8063 53.9351C54.5774 54.5031 54.504 55.1336 54.3595 55.7351C56.7493 54.6609 58.7438 53.4734 59.472 50.9336C59.6501 50.3164 60.3798 49.8578 60.8556 49.3258L61.9618 50.4976C62.2978 50.2148 62.6056 49.893 62.9704 49.6578C64.1188 48.918 65.3556 48.2656 66.5665 49.4117C67.8196 50.5969 66.8712 51.7515 66.2165 52.7765C65.504 53.8945 64.6313 54.9094 63.8282 55.9687C65.6345 54.8047 68.1009 54.2828 68.429 51.7672C69.229 45.6226 69.9321 39.4656 70.6454 33.3101C70.8571 31.4883 70.9704 29.6547 71.1353 27.7562C56.9087 31.2008 42.9876 31.2219 28.879 27.7023ZM34.9853 75.6469C35.6704 77.457 36.711 79.2351 36.9837 81.1242C37.5595 85.1453 37.7056 89.2273 38.1134 93.2758C38.1728 93.8656 38.5548 94.6758 39.0313 94.9351C46.047 98.7476 53.1306 99.4086 60.2884 95.239C61.3563 94.6172 61.554 93.7961 61.6923 92.6414C62.3618 87.0312 60.8712 81.0805 64.4579 75.7976C54.4142 78.289 44.6118 78.3664 34.9853 75.6469ZM59.197 28.7094C62.6048 28.3805 65.9712 27.5805 69.3415 26.9195C69.9767 26.7953 70.5407 26.3117 71.1376 25.9937C70.3509 25.3023 69.6704 24.9695 68.9595 24.8859C65.4204 24.468 61.8688 24.1461 58.3321 23.7078C57.7978 23.6414 56.8438 22.982 56.8837 22.8617C57.9157 19.7523 57.8649 16.2328 60.2071 13.6125C63.1673 10.3 66.1579 7.01639 69.1259 3.73123C66.9181 1.35623 66.8884 1.35311 64.8876 3.43202C63.7563 4.60702 62.7228 5.89295 61.4954 6.95702C56.954 10.893 53.7642 15.5547 53.1423 21.7008C52.9993 23.1109 52.2251 23.6203 50.7446 23.6422C45.8571 23.7133 40.9642 23.8476 36.0876 24.1687C33.6712 24.3273 31.2845 24.9476 28.8837 25.3586L28.8618 26.2562C30.3642 26.7195 31.8376 27.3281 33.372 27.6226C41.922 29.2617 50.5524 29.543 59.197 28.7094ZM56.4657 26.5625C54.5306 28.125 52.9313 28.125 51.3868 26.5625H56.4657Z" fill="#CD00FF"/>
</svg>
