<svg width="69" height="60" viewBox="0 0 69 60" fill="none" xmlns="http://www.w3.org/2000/svg">
<path d="M39.2593 28.8067C39.2593 22.2611 33.9529 16.9548 27.4073 16.9548C20.8618 16.9548 15.5555 22.2611 15.5555 28.8067C15.5555 41.898 26.168 52.5104 39.2593 52.5104C52.3504 52.5104 62.9629 41.898 62.9629 28.8067C62.9629 18.2763 58.3851 8.81515 51.1111 2.30469" stroke="white" stroke-width="5"/>
<path d="M27.406 28.8068C27.406 35.3522 32.7122 40.6586 39.2578 40.6586C45.8033 40.6586 51.1096 35.3522 51.1096 28.8068C51.1096 15.7155 40.4971 5.10303 27.406 5.10303C14.3148 5.10303 3.70227 15.7155 3.70227 28.8068C3.70227 39.4264 8.35787 48.9584 15.7394 55.4735" stroke="#FF585F" stroke-width="5"/>
</svg>
