<svg width="57" height="60" viewBox="0 0 57 60" fill="none" xmlns="http://www.w3.org/2000/svg">
<path d="M41.7552 42.7321C42.1349 39.57 42.0211 39.1063 44.3763 39.6185L44.9743 39.6711C46.7852 39.7534 49.1544 39.3797 50.546 38.7332C53.5423 37.3429 55.3188 35.022 52.3646 35.6317C45.6257 37.022 45.1623 34.7401 45.1623 34.7401C52.2782 24.182 55.2528 10.7796 52.6853 7.49899C45.6821 -1.44944 33.5599 2.78206 33.3569 2.89193L33.2924 2.90385C31.961 2.62759 30.4707 2.46252 28.7969 2.43545C25.7474 2.38534 23.4332 3.23493 21.678 4.56629C21.678 4.56629 0.0525217 -4.34314 1.05858 15.7708C1.27255 20.0496 7.19181 48.1479 14.2516 39.6608C16.832 36.5575 19.3256 33.9334 19.3256 33.9334C20.5639 34.7561 22.0464 35.1757 23.6012 35.025L23.7214 34.9225C23.6837 35.3077 23.7003 35.6847 23.7694 36.1309C21.9511 38.1629 22.4854 38.5198 18.8492 39.2681C15.1706 40.0263 17.3319 41.3761 18.7424 41.7289C20.4531 42.1568 24.4106 42.7628 27.0852 39.0193L26.9787 39.4465C27.6922 40.0172 27.6439 43.5488 27.745 46.0721C27.8463 48.5955 28.0154 50.9503 28.5296 52.3385C29.0439 53.7265 29.651 57.3025 34.4297 56.2782C38.4235 55.4225 41.477 54.1908 41.7552 42.7321Z" fill="#1A6995"/>
<path d="M27.3767 37.6758C27.191 44.3101 27.4233 50.9905 28.0723 52.6141C28.7219 54.2375 30.112 57.3956 34.8919 56.3714C38.8854 55.5153 40.3384 53.8585 40.9689 50.2016C41.4333 47.511 42.3285 40.0386 42.4434 38.5076" stroke="white"/>
<path d="M21.6463 4.41768C21.6463 4.41768 0.00562317 -4.42718 1.01168 15.6866C1.22565 19.9657 7.14518 48.0649 14.2051 39.5775C16.7851 36.4738 19.1184 34.0395 19.1184 34.0395" stroke="white"/>
<path d="M33.3362 2.8037C32.5871 3.03857 45.3741 -1.87073 52.6411 7.4149C55.2079 10.6953 52.2333 24.098 45.1176 34.6571" stroke="white"/>
<path d="M45.1165 34.657C45.1165 34.657 45.5802 36.9396 52.3198 35.5485C55.2726 34.9385 53.4956 37.2598 50.5007 38.6508C48.0428 39.7915 42.5324 40.0838 42.4424 38.5075C42.2106 34.4405 45.3425 35.6762 45.1165 34.657ZM45.1165 34.657C44.9122 33.7394 43.5116 32.8385 42.5852 30.5923C41.7764 28.6318 31.4921 13.5971 45.4373 15.83C45.9481 15.7243 41.8002 2.56566 28.7495 2.3517C15.7018 2.13773 16.1299 18.3975 16.1299 18.3975" stroke="white"/>
<path d="M23.7221 36.0475C21.903 38.0794 22.4379 38.4362 18.8019 39.1848C15.1229 39.9432 17.2844 41.2927 18.6951 41.6453C20.4058 42.0734 24.3634 42.6794 27.0375 38.935C27.8518 37.795 27.0327 35.976 25.9141 35.5123C25.3736 35.2884 24.6509 35.0078 23.7221 36.0475Z" stroke="white"/>
<path d="M23.6052 36.0122C23.4219 34.8175 23.9978 33.3959 24.6149 31.7327C25.5423 29.2372 27.6821 26.7412 25.9704 18.8251C24.6944 12.9261 16.1367 17.5974 16.1313 18.3972C16.1261 19.197 16.5184 22.4515 15.9884 26.2416C15.2968 31.1872 19.1354 35.3699 23.5555 34.942" stroke="white"/>
<path d="M21.5677 18.2777C21.5292 18.551 22.068 19.2799 22.7703 19.3773C23.4716 19.4752 24.0718 18.9055 24.1099 18.6326C24.1479 18.3593 23.61 18.0585 22.9071 17.9606C22.2055 17.8627 21.6048 18.0052 21.5677 18.2777Z" fill="white" stroke="white"/>
<path d="M42.9278 17.7201C42.9658 17.9932 42.4277 18.7223 41.725 18.8197C41.0234 18.9175 40.423 18.3477 40.3846 18.0748C40.3474 17.8017 40.8857 17.5007 41.5877 17.403C42.2895 17.3051 42.8897 17.4474 42.9278 17.7201Z" fill="white" stroke="white"/>
<path d="M45.4365 15.8296C45.552 17.9725 44.9748 19.432 44.9021 21.7132C44.7943 25.029 46.4829 28.8241 43.9387 32.6239" stroke="white"/>
</svg>
