<svg width="100" height="100" viewBox="0 0 100 100" fill="none" xmlns="http://www.w3.org/2000/svg">
<path d="M67.1781 59.4336C67.6719 55.3227 67.5242 54.7196 70.5859 55.3852L71.3633 55.4539C73.718 55.561 76.7984 55.075 78.607 54.2344C82.5023 52.4274 84.8117 49.4086 80.9711 50.2016C72.2094 52.0086 71.607 49.043 71.607 49.043C80.8594 35.3156 84.7274 17.8906 81.3891 13.625C72.2844 1.99064 56.5234 7.49221 56.2594 7.63518L56.175 7.65158C54.4438 7.29143 52.507 7.07736 50.3305 7.04221C46.3656 6.97736 43.357 8.08205 41.075 9.81252C41.075 9.81252 12.9586 -1.77107 14.2664 24.3797C14.5445 29.943 22.2406 66.475 31.4195 55.4406C34.7742 51.4063 38.0164 47.9946 38.0164 47.9946C39.6266 49.0641 41.5539 49.6094 43.5758 49.4133L43.732 49.2805C43.6836 49.7813 43.7047 50.2711 43.7953 50.8508C41.4305 53.4938 42.1258 53.9578 37.3977 54.9305C32.6149 55.9164 35.425 57.6711 37.2586 58.1297C39.4836 58.6867 44.6281 59.475 48.1055 54.6071L47.9672 55.1625C48.8953 55.9047 48.832 60.4961 48.9633 63.7766C49.0945 67.0571 49.3149 70.118 49.9836 71.9242C50.6524 73.7289 51.4414 78.3782 57.6547 77.0469C62.8469 75.9328 66.8164 74.3313 67.1781 59.4336Z" fill="white"/>
<path d="M55.6312 80.2891C52.8827 80.2891 51.0937 79.2266 50.0062 78.2C48.3655 76.6524 47.7147 74.6578 47.3265 73.4664L47.1585 72.9688C46.3757 70.8555 46.1108 67.8133 45.9538 63.8961C45.9304 63.3086 45.9132 62.7016 45.8952 62.0586C45.8819 61.5891 45.8655 61 45.8421 60.382C44.8655 60.85 43.8202 61.1805 42.7194 61.3695C40.7819 61.7008 38.6991 61.593 36.5273 61.05C34.9952 60.6672 33.403 59.8735 32.496 58.6469C29.8515 60.9633 27.3288 60.6484 25.9546 60.1906C23.5304 59.382 21.3608 57.1109 19.321 53.2453C17.8687 50.493 16.4632 46.9055 15.1437 42.5844C12.8468 35.0586 11.3874 27.132 11.2577 24.5305C10.8499 16.3844 13.0421 10.5594 17.7733 7.21798C25.2382 1.94532 36.5468 5.04532 40.6694 6.45313C43.439 4.7836 46.6976 3.97032 50.3804 4.02969C52.3585 4.06173 54.2413 4.23594 55.9905 4.54688C57.8148 3.97344 61.4194 3.15001 65.5452 3.20079C73.1468 3.29141 79.446 6.25391 83.7608 11.768C86.8397 15.7024 85.3179 23.9633 84.1358 28.5383C82.4741 34.9719 79.5608 41.8164 75.9827 47.7742C76.9546 47.7813 78.3616 47.6641 80.3632 47.2516C84.3116 46.4359 85.4655 48.5531 85.7788 49.5008C87.0343 53.3031 81.5772 56.1758 79.8749 56.9656C77.6937 57.9789 74.1382 58.5953 71.2257 58.4617L71.0983 58.4531L70.3335 58.3859L70.2577 59.0235L70.1851 59.6477C69.9897 67.1977 68.9108 71.9789 66.6913 75.1391C64.3655 78.4508 61.1319 79.3797 58.2843 79.9899C57.3147 80.1984 56.4319 80.2891 55.6312 80.2891ZM49.8483 52.8094C51.6226 54.2289 51.778 56.9 51.9163 61.8922C51.9335 62.5149 51.9499 63.1047 51.9718 63.6555C52.039 65.3227 52.196 69.2274 52.8069 70.8774C52.8937 71.1102 52.971 71.3477 53.0522 71.5977C53.7335 73.6852 54.0757 74.7313 57.0218 74.1C59.496 73.5703 60.7671 73.0945 61.7624 71.6774C63.2093 69.6164 64.0187 65.4735 64.1671 59.3594L67.1765 59.4328L64.1874 59.0742L64.2749 58.3281C64.5616 55.8688 64.7679 54.0906 66.4124 52.9156C67.7312 51.9727 69.2351 52.0641 70.4327 52.2797C69.1171 51.2867 68.753 50.1195 68.6562 49.6414L68.4054 48.4055L69.1101 47.3586C73.1726 41.3305 76.5233 33.9219 78.303 27.032C80.1312 19.9524 79.5733 16.1922 79.0163 15.4813C71.6366 6.05079 58.8374 9.94376 57.5015 10.3867L57.2749 10.5086L56.1421 10.7203L55.5616 10.6C53.9624 10.268 52.1858 10.0844 50.2804 10.0531C47.2874 10.0031 44.8733 10.7102 42.8937 12.2125L41.5202 13.2539L39.9257 12.5969C36.521 11.2047 26.5179 8.40548 21.2398 12.1438C18.3101 14.2188 16.9757 18.2852 17.2726 24.2297C17.3702 26.1922 18.7046 33.6211 20.903 40.8274C23.9429 50.7852 26.7054 54.0922 27.8585 54.4774C28.0593 54.5453 28.5819 54.1391 29.1015 53.5156C32.4812 49.4508 35.6952 46.0625 35.8304 45.9195L37.5733 44.0859L39.6804 45.4859C40.5296 46.0508 41.4663 46.3703 42.4288 46.4305L47.4546 42.1445L46.7265 49.5742C46.7101 49.7414 46.7023 49.968 46.7679 50.3899L46.9866 51.7985L46.039 52.8594L45.9296 52.982L48.6905 54.257L49.8483 52.8094Z" fill="#CD00FF"/>
<path d="M80.9735 50.2015C72.211 52.0086 71.6087 49.0422 71.6087 49.0422C80.8602 35.3148 84.7274 17.889 81.3899 13.6242C72.2844 1.98981 56.5235 7.49216 56.2602 7.63513L56.1751 7.64997C54.4438 7.29138 52.5071 7.07731 50.3297 7.04216C46.3649 6.97731 43.3571 8.08122 41.0751 9.81169C41.0751 9.81169 12.9579 -1.77112 14.2657 24.3797C14.5438 29.9429 22.2399 66.475 31.4188 55.4406C34.7735 51.4062 38.0149 47.9945 38.0149 47.9945C39.6251 49.064 41.5524 49.6093 43.5735 49.4133L43.7305 49.2804C43.6821 49.7812 43.704 50.2711 43.793 50.8507C41.429 53.4937 42.1227 53.9578 37.3962 54.9304C32.6126 55.9164 35.4227 57.6711 37.2579 58.1297C39.4821 58.6867 44.6274 59.475 48.104 54.607L47.9649 55.1625C48.8915 55.9047 49.5422 59.9898 49.4329 63.6929C49.3235 67.3961 49.2508 69.9383 49.9813 71.9242C50.7118 73.9094 51.4391 78.3781 57.6532 77.0469C62.8454 75.9336 65.536 73.05 65.911 68.2406C66.1766 64.8211 66.7774 65.3265 66.8157 62.2687L67.2985 60.8211C67.854 56.1851 67.3868 54.6898 70.586 55.3859L71.3633 55.4539C73.718 55.5617 76.7993 55.075 78.6079 54.2343C82.5032 52.4265 84.8133 49.4086 80.9735 50.2015Z" fill="#CD00FF"/>
<path d="M55.9454 78.4328C50.7649 78.4336 49.1243 74.3313 48.4524 72.6539C47.4704 70.1961 47.2579 60.6555 47.4766 52.8313C47.4922 52.2766 47.9508 51.8383 48.5086 51.8555C49.0625 51.8711 49.4993 52.3328 49.4844 52.8875C49.2321 61.9117 49.5907 70.0891 50.3172 71.9078C51.4524 74.7453 53.1735 77.2274 58.0414 76.1852C62.6625 75.1938 64.393 73.4414 65.1633 68.9742C65.7555 65.5453 66.9243 55.7914 67.068 53.8664C67.1094 53.3133 67.5891 52.8977 68.1438 52.9399C68.6969 52.9813 69.1118 53.4633 69.0704 54.0156C68.9204 56.0188 67.7563 65.7547 67.1414 69.3156C66.2313 74.593 63.8789 76.9867 58.4618 78.1484C57.5422 78.3445 56.7055 78.4328 55.9454 78.4328ZM27.8586 58.3977C27.3641 58.3984 26.9157 58.3078 26.5274 58.1781C23.1625 57.0555 19.9579 51.5758 17.0016 41.8899C14.7516 34.5164 13.3258 26.8211 13.2008 24.3203C12.8297 16.9063 14.7399 11.6602 18.8766 8.72892C27.061 2.9297 40.8297 8.45236 41.4118 8.68986C41.925 8.90002 42.1711 9.48595 41.961 9.99924C41.7516 10.5117 41.1649 10.7586 40.6524 10.5485V10.5492C40.5196 10.4945 27.3164 5.20549 20.0336 10.3703C16.4961 12.8789 14.8719 17.5383 15.2055 24.2211C15.311 26.3274 16.643 33.8391 18.9219 41.3047C21.561 49.9508 24.5649 55.4078 27.1625 56.2734C27.5696 56.4102 28.8102 56.8234 30.5852 54.6906C33.9227 50.675 36.9891 47.4703 37.0196 47.4383C37.4032 47.0375 38.0391 47.025 38.4391 47.4078C38.8391 47.7914 38.8532 48.4274 38.4696 48.8274C38.4391 48.8586 35.4196 52.0156 32.1289 55.9742C30.5704 57.8477 29.0758 58.3977 27.8586 58.3977ZM71.5461 49.9375C71.3532 49.9375 71.1579 49.882 70.986 49.7656C70.5258 49.4563 70.4039 48.832 70.7141 48.3719C80.0664 34.4938 83.3493 17.7258 80.5375 14.1336C76.9985 9.61173 72.0008 7.24924 65.6844 7.11408C61.0071 7.01252 57.2891 8.20705 56.6821 8.41564L56.5297 8.47736C55.9188 8.66955 55.45 8.33439 55.2735 7.94299C55.0641 7.4797 55.236 6.93205 55.6704 6.66877L55.9407 6.55783L55.9274 6.56174L55.9415 6.55705C56.9735 6.1797 60.7477 5.04689 65.4235 5.1008C72.4133 5.17424 78.1868 7.87033 82.1196 12.8953C83.9805 15.2735 83.9844 20.7524 82.1313 27.9266C80.2422 35.2406 76.6875 43.1024 72.3797 49.4945C72.186 49.7828 71.8688 49.9375 71.5461 49.9375ZM72.0235 56.3617C70.4266 56.3617 68.9954 56.1375 68.1383 55.6234C67.2571 55.0961 67.0891 54.3781 67.0672 53.9977C66.8266 49.7758 69.1563 49.0406 70.3446 48.7055C70.1789 48.4555 69.943 48.1609 69.7 47.857C69.0071 46.9914 68.0586 45.8055 67.3274 44.032C67.2133 43.7555 66.8539 43.111 66.4383 42.3656C64.186 38.3274 59.5 29.9235 62.5102 25.6195C63.9039 23.6281 66.6774 22.8445 70.7649 23.282C69.5625 19.6188 63.836 8.15861 50.25 7.93595C46.1633 7.8672 42.8118 9.12424 40.2938 11.6664C34.6555 17.361 34.8602 27.6641 34.8625 27.7664C34.8774 28.3211 34.4391 28.782 33.8852 28.7961C33.3305 28.8133 32.8696 28.3735 32.8555 27.8188C32.843 27.3617 32.6321 16.55 38.8672 10.2531C41.7852 7.30627 45.6258 5.85158 50.2829 5.92736C58.9766 6.07033 64.5711 10.4891 67.7344 14.1719C71.1813 18.1844 72.8719 22.611 73.011 24.0875C73.1149 25.186 72.3266 25.4063 72.1672 25.4383L71.8055 25.4469C67.7938 24.8047 65.2204 25.25 64.1563 26.7711C61.8664 30.043 66.2993 37.9922 68.1922 41.3875C68.6758 42.2531 69.0243 42.8789 69.1836 43.2656C69.8055 44.7735 70.6164 45.7867 71.268 46.6008C71.8407 47.3172 72.3375 47.9375 72.5157 48.6672C72.5977 48.8117 73.768 50.5414 80.7094 49.1086C82.4493 48.75 83.4922 49.057 83.811 50.0211C84.4383 51.9188 80.9188 54.1313 78.9704 55.0367C77.2219 55.8484 74.4352 56.3617 72.0235 56.3617ZM69.0696 53.832C69.2891 54.0547 70.3907 54.4375 72.6727 54.3399C74.7008 54.2524 76.8407 53.8109 78.125 53.2156C79.7672 52.4531 80.8625 51.6008 81.4305 51.0188L81.1149 51.0766C76.6766 51.993 73.5375 51.8711 71.7852 50.7133C71.6594 50.6313 71.5477 50.5453 71.4454 50.4609C71.2555 50.5359 71.0797 50.5852 70.9547 50.6203C69.9602 50.8992 68.9321 51.1875 69.0696 53.832ZM40.4 59.4406C39.2977 59.4406 38.1375 59.2914 36.9524 58.9938C35.725 58.6867 33.6547 57.7625 33.6868 56.2445C33.7219 54.5406 36.1993 54.0297 37.1329 53.8375C40.5016 53.1438 40.7211 52.8656 41.7743 51.5289C42.0813 51.1391 42.4633 50.6539 42.9836 50.0719C43.7571 49.207 44.6024 48.768 45.4961 48.768C46.118 48.768 46.6289 48.9797 46.9657 49.1188C48.0407 49.5641 48.9375 50.6406 49.3063 51.9297C49.6391 53.0922 49.4805 54.2109 48.8594 55.0797C46.8219 57.9336 43.8969 59.4406 40.4 59.4406ZM35.8555 56.3313C36.1586 56.5649 36.7649 56.8774 37.4391 57.0469C38.4657 57.3031 39.461 57.4336 40.4 57.4336C43.261 57.4336 45.5571 56.2485 47.2258 53.9133C47.5735 53.4258 47.4696 52.8078 47.3766 52.482C47.1813 51.8008 46.6969 51.1813 46.1977 50.9735C45.9266 50.861 45.7024 50.775 45.4961 50.775C45.3852 50.775 45.0485 50.775 44.4805 51.4102C44.0008 51.9461 43.6563 52.3836 43.3508 52.7703C42.0399 54.4352 41.4391 55 37.5375 55.8039C36.586 56.0008 36.0977 56.1992 35.8555 56.3313ZM43.5758 51.7C43.0883 51.7 42.661 51.3445 42.5844 50.8484C42.5586 50.682 42.5422 50.5141 42.5344 50.3453C39.9766 50.2969 37.5094 49.2 35.6368 47.2453C33.2688 44.7742 32.1907 41.3508 32.6797 37.8531C33.211 34.0547 33.0125 30.7016 32.9055 28.9C32.8758 28.3992 32.8547 28.0375 32.8563 27.7867C32.8579 27.4695 32.8641 26.6266 35.6805 25.1992C36.6821 24.6914 38.6907 23.8055 40.8844 23.5781C44.5204 23.2031 46.9165 24.8219 47.6336 28.1375C49.5696 37.0906 47.7868 41.0508 46.4852 43.9422C46.2422 44.4797 46.0133 44.9891 45.8305 45.4813L45.6688 45.9164C44.9813 47.7602 44.3868 49.3531 44.5696 50.5438C44.6532 51.0922 44.2774 51.6039 43.7297 51.6891L43.5758 51.7ZM34.8704 28.0641L34.9102 28.7813C35.0211 30.6524 35.2274 34.1352 34.668 38.132C34.2649 41.0164 35.1461 43.8328 37.086 45.857C38.6188 47.457 40.6375 48.3399 42.7118 48.3399H42.7547C42.9875 47.361 43.3727 46.3281 43.7875 45.2149L43.9485 44.7828C44.1555 44.2266 44.3977 43.6883 44.6539 43.1188C45.9071 40.3344 47.4664 36.8688 45.6704 28.5617C45.3141 26.9172 44.4516 25.9649 43.0336 25.6508C40.1211 25.007 35.7813 27.1977 34.8704 28.0641ZM40.9297 27.6383C40.8797 27.993 41.5805 28.9406 42.493 29.0672C43.4047 29.1945 44.1852 28.4539 44.2344 28.0992C44.2836 27.7438 43.5836 27.3531 42.6704 27.2258C41.7586 27.0985 40.9782 27.2828 40.9297 27.6383ZM42.7032 29.4172L42.4469 29.3992C41.8805 29.3203 41.3079 28.9633 40.9164 28.4438C40.7789 28.2617 40.5539 27.907 40.5985 27.5914C40.6625 27.1281 41.2266 26.8516 42.1086 26.8516C42.3063 26.8516 42.511 26.8664 42.718 26.8945C43.1993 26.9617 43.6469 27.1008 43.9774 27.2852C44.55 27.6055 44.5922 27.9617 44.5664 28.1469C44.4954 28.657 43.6813 29.4172 42.7032 29.4172ZM41.2625 27.6977C41.2915 27.9164 41.8329 28.6391 42.5391 28.7367L42.7024 28.7485C43.3539 28.7485 43.8414 28.2352 43.8985 28.0672C43.8383 27.9531 43.4196 27.668 42.6243 27.5586C42.4485 27.5336 42.2743 27.5211 42.1079 27.5211C41.5985 27.5203 41.3258 27.6352 41.2625 27.6977ZM68.7008 26.9141C68.75 27.2695 68.0508 28.2172 67.1375 28.3438C66.225 28.4703 65.4446 27.7305 65.3946 27.375C65.3461 27.0203 66.0461 26.6289 66.9586 26.5024C67.8711 26.3742 68.6508 26.5602 68.7008 26.9141ZM66.9274 28.525C66.0485 28.525 65.2914 27.8414 65.2289 27.3985C65.1571 26.8664 66.0329 26.4617 66.936 26.3367C67.1344 26.3086 67.3313 26.2945 67.5211 26.2945C68.3 26.2945 68.8157 26.5235 68.8672 26.8914C68.9008 27.1305 68.718 27.4985 68.4024 27.8297C68.1946 28.0485 67.7571 28.4274 67.1618 28.5094L66.9274 28.525ZM67.5204 26.6289C67.3461 26.6289 67.1649 26.6422 66.9813 26.6672C66.0735 26.793 65.5336 27.1578 65.5594 27.3531C65.5899 27.5672 66.1688 28.1906 66.9266 28.1906L67.1133 28.1774C67.6086 28.1078 67.9805 27.7852 68.1578 27.5985C68.436 27.3055 68.5469 27.0305 68.5336 26.936C68.5172 26.8133 68.1829 26.6289 67.5204 26.6289ZM70.0157 47.2953C69.8235 47.2953 69.6297 47.2406 69.4579 47.1258C68.9969 46.8164 68.8735 46.1938 69.1821 45.7328C71.3196 42.5399 70.9282 39.2828 70.55 36.1344C70.3883 34.7922 70.2219 33.4055 70.2657 32.0735C70.3094 30.7039 70.4828 29.5742 70.6516 28.4805C70.8508 27.186 71.0391 25.9617 70.961 24.5102C70.9305 23.957 71.3555 23.4844 71.9094 23.4531C72.4649 23.4235 72.936 23.8485 72.9664 24.4024C73.0555 26.0617 72.8422 27.4461 72.636 28.786C72.4766 29.8195 72.3118 30.8883 72.2719 32.1375C72.2336 33.3164 72.3844 34.5688 72.5438 35.8938C72.9469 39.243 73.4024 43.0391 70.8508 46.8492C70.6571 47.1383 70.3391 47.2953 70.0157 47.2953Z" fill="white"/>
<path d="M2.21484 80.6124C3.06875 80.4703 4.18516 80.3484 5.60781 80.3484C7.35391 80.3484 8.63438 80.7546 9.44688 81.4859C10.1984 82.1359 10.6453 83.1312 10.6453 84.3507C10.6453 85.5898 10.2789 86.5648 9.58828 87.2757C8.65391 88.271 7.13047 88.7789 5.40391 88.7789C4.87578 88.7789 4.38828 88.7585 3.98281 88.657V94.1421H2.21484V80.6124ZM3.98281 87.214C4.36875 87.3156 4.85625 87.3562 5.44531 87.3562C7.57734 87.3562 8.87813 86.3203 8.87813 84.4312C8.87813 82.6234 7.59844 81.75 5.64844 81.75C4.87656 81.75 4.2875 81.8109 3.98281 81.8921V87.214ZM21.35 89.1437C21.35 92.7796 18.8305 94.3648 16.4539 94.3648C13.793 94.3648 11.7414 92.4148 11.7414 89.3062C11.7414 86.0156 13.8945 84.0859 16.6164 84.0859C19.4406 84.0851 21.35 86.1374 21.35 89.1437ZM13.55 89.2453C13.55 91.3984 14.7891 93.0234 16.5359 93.0234C18.2422 93.0234 19.5211 91.4187 19.5211 89.2046C19.5211 87.539 18.6891 85.4265 16.5758 85.4265C14.4625 85.4265 13.55 87.3765 13.55 89.2453ZM23.3602 92.3125C23.8883 92.6578 24.8227 93.0234 25.7164 93.0234C27.0164 93.0234 27.6258 92.3734 27.6258 91.5609C27.6258 90.7078 27.1188 90.2406 25.7977 89.7531C24.0305 89.1234 23.1977 88.1484 23.1977 86.9703C23.1977 85.3859 24.4773 84.0859 26.5898 84.0859C27.5852 84.0859 28.4594 84.3703 29.0078 84.6953L28.5609 85.9953C28.175 85.7515 27.4641 85.4265 26.55 85.4265C25.4938 85.4265 24.9047 86.0359 24.9047 86.7671C24.9047 87.5796 25.4945 87.9453 26.7742 88.4328C28.4805 89.0828 29.3539 89.9359 29.3539 91.3984C29.3539 93.1249 28.0133 94.3437 25.6773 94.3437C24.6008 94.3437 23.6055 94.0796 22.9148 93.6734L23.3602 92.3125ZM33.8016 81.4851V84.3085H36.3602V85.6695H33.8016V90.971C33.8016 92.1898 34.1461 92.8804 35.1422 92.8804C35.6094 92.8804 35.9547 92.8195 36.1781 92.7585L36.2594 94.0992C35.9148 94.2414 35.3656 94.3429 34.6758 94.3429C33.843 94.3429 33.1719 94.0789 32.7453 93.5914C32.2383 93.0632 32.0547 92.1898 32.0547 91.032V85.6695H30.5313V84.3085H32.0547V81.9523L33.8016 81.4851ZM46.7203 84.3093C46.6789 85.0203 46.6391 85.8125 46.6391 87.0109V92.7187C46.6391 94.9734 46.1922 96.3546 45.2375 97.2085C44.2828 98.1023 42.9016 98.3867 41.6625 98.3867C40.4844 98.3867 39.1844 98.1023 38.3914 97.5742L38.8383 96.2132C39.4883 96.6195 40.5039 96.9851 41.7227 96.9851C43.5508 96.9851 44.8914 96.0304 44.8914 93.5523V92.4554H44.8508C44.3023 93.3695 43.2461 94.1007 41.7227 94.1007C39.2852 94.1007 37.5383 92.0289 37.5383 89.3062C37.5383 85.9749 39.7117 84.0859 41.9664 84.0859C43.6734 84.0859 44.6078 84.9796 45.0344 85.7921H45.075L45.1562 84.3093H46.7203ZM44.8719 88.189C44.8719 87.8843 44.8516 87.6203 44.7703 87.3765C44.4453 86.3406 43.5719 85.4875 42.2719 85.4875C40.5648 85.4875 39.3469 86.9296 39.3469 89.2046C39.3469 91.1343 40.3219 92.739 42.2516 92.739C43.3484 92.739 44.3438 92.0484 44.7297 90.9109C44.8313 90.6062 44.8727 90.2609 44.8727 89.9562L44.8719 88.189ZM49.482 87.3765C49.482 86.2187 49.4617 85.2234 49.4008 84.3093H50.9656L51.0258 86.239H51.107C51.5539 84.9187 52.6305 84.0859 53.8289 84.0859C54.032 84.0859 54.1734 84.1062 54.3359 84.1468V85.8328C54.1539 85.7921 53.9703 85.7718 53.7273 85.7718C52.468 85.7718 51.5734 86.7265 51.3305 88.0671C51.2898 88.3109 51.2492 88.5953 51.2492 88.9V94.1406H49.482V87.3765ZM56.9172 89.55C56.9578 91.9671 58.5008 92.9624 60.2883 92.9624C61.5687 92.9624 62.3398 92.739 63.0102 92.4546L63.3148 93.7343C62.6852 94.0187 61.6086 94.3437 60.0445 94.3437C57.018 94.3437 55.2102 92.3531 55.2102 89.3875C55.2102 86.4218 56.957 84.0851 59.8211 84.0851C63.0305 84.0851 63.8836 86.9085 63.8836 88.7164C63.8836 89.082 63.843 89.3664 63.8227 89.5492L56.9172 89.55ZM62.1578 88.2703C62.1773 87.1328 61.6898 85.3656 59.6797 85.3656C57.8719 85.3656 57.0797 87.0312 56.9367 88.2703H62.1578Z" fill="white"/>
<path d="M65.9149 91.9875C66.7071 92.475 67.8649 92.8812 69.0837 92.8812C70.8915 92.8812 71.9478 91.9266 71.9478 90.5453C71.9478 89.2656 71.2165 88.5344 69.3681 87.8234C67.1337 87.0312 65.7524 85.8734 65.7524 83.9437C65.7524 81.8109 67.5196 80.2266 70.1806 80.2266C71.5821 80.2266 72.5978 80.5516 73.2071 80.8969L72.7196 82.3391C72.2728 82.0953 71.3587 81.6891 70.1196 81.6891C68.2509 81.6891 67.5399 82.8063 67.5399 83.7406C67.5399 85.0203 68.372 85.65 70.2618 86.3812C72.5774 87.2758 73.7556 88.3922 73.7556 90.4031C73.7556 92.5156 72.1915 94.3438 68.9618 94.3438C67.6415 94.3438 66.1993 93.9578 65.4673 93.4703L65.9149 91.9875ZM87.4665 96.1516C85.6181 95.6641 83.8103 95.1156 82.2259 94.5672C81.9415 94.4656 81.6571 94.3641 81.3931 94.3641C78.1431 94.2422 75.3603 91.8453 75.3603 87.4375C75.3603 83.05 78.0415 80.2266 81.7384 80.2266C85.4556 80.2266 87.8735 83.1109 87.8735 87.1531C87.8735 90.6672 86.2485 92.9219 83.9735 93.7141V93.7953C85.3345 94.1406 86.8173 94.4656 87.9751 94.6687L87.4665 96.1516ZM86.004 87.2344C86.004 84.4922 84.5829 81.668 81.6774 81.668C78.6915 81.668 77.229 84.4305 77.2493 87.3969C77.229 90.3016 78.8337 92.9219 81.5962 92.9219C84.4204 92.9219 86.004 90.3625 86.004 87.2344ZM90.1673 80.45H91.9353V92.6578H97.7853V94.1406H90.1673V80.45Z" fill="#CD00FF"/>
</svg>
