<svg width="53" height="60" viewBox="0 0 53 60" fill="none" xmlns="http://www.w3.org/2000/svg">
<path d="M43.4627 11.0823H46.2332C47.009 11.0823 47.6185 11.6918 47.6185 12.4676C47.6185 13.2433 47.009 13.8528 46.2332 13.8528H43.4627C42.6868 13.8528 42.0774 13.2433 42.0774 12.4676C42.0774 11.6918 42.6868 11.0823 43.4627 11.0823Z" fill="#1DB6B5"/>
<path d="M1.90383 55.4111H15.7567C16.5324 55.4111 17.1419 56.0206 17.1419 56.7964C17.1419 57.572 16.5324 58.1817 15.7567 58.1817H1.90383C1.12808 58.1817 0.518555 57.572 0.518555 56.7964C0.518555 56.0206 1.12808 55.4111 1.90383 55.4111Z" fill="#FD5158"/>
<path d="M35.1494 33.2466H43.4611C44.2369 33.2466 44.8463 33.8562 44.8463 34.6319C44.8463 35.4077 44.2369 36.0173 43.4611 36.0173H35.1494C34.3738 36.0173 33.7642 35.4077 33.7642 34.6319C33.7642 33.8562 34.3738 33.2466 35.1494 33.2466Z" fill="#CF90C9"/>
<path d="M18.5266 33.2466H29.6089C30.3846 33.2466 30.9942 33.8562 30.9942 34.6319C30.9942 35.4077 30.3846 36.0173 29.6089 36.0173H18.5266C17.7509 36.0173 17.1414 35.4077 17.1414 34.6319C17.1414 33.8562 17.7509 33.2466 18.5266 33.2466Z" fill="#FD5158"/>
<path d="M1.90383 33.2466H12.9861C13.7618 33.2466 14.3714 33.8562 14.3714 34.6319C14.3714 35.4077 13.7618 36.0173 12.9861 36.0173H1.90383C1.12808 36.0173 0.518555 35.4077 0.518555 34.6319C0.518555 33.8562 1.12808 33.2466 1.90383 33.2466Z" fill="#1DB6B5"/>
<path d="M1.90383 44.3289H15.7567C16.5324 44.3289 17.1419 44.9383 17.1419 45.7141C17.1419 46.4898 16.5324 47.0994 15.7567 47.0994H1.90383C1.12808 47.0994 0.518555 46.4898 0.518555 45.7141C0.518555 44.9383 1.12808 44.3289 1.90383 44.3289Z" fill="#CF90C9"/>
<path d="M1.90383 22.1643H15.7567C16.5324 22.1643 17.1419 22.7739 17.1419 23.5496C17.1419 24.3254 16.5324 24.9349 15.7567 24.9349H1.90383C1.12808 24.9349 0.518555 24.3254 0.518555 23.5496C0.518555 22.7739 1.12808 22.1643 1.90383 22.1643Z" fill="#CF90C9"/>
<path d="M15.7566 5.54077H43.4622C44.2381 5.54077 44.8475 6.1503 44.8475 6.92606C44.8475 7.70181 44.2381 8.31134 43.4622 8.31134H15.7566C14.9808 8.31134 14.3713 7.70181 14.3713 6.92606C14.3713 6.1503 14.9808 5.54077 15.7566 5.54077Z" fill="#FFBC18"/>
<path d="M1.90383 5.54077H10.2155C10.9913 5.54077 11.6008 6.1503 11.6008 6.92606C11.6008 7.70181 10.9913 8.31134 10.2155 8.31134H1.90383C1.12808 8.31134 0.518555 7.70181 0.518555 6.92606C0.518555 6.1503 1.12808 5.54077 1.90383 5.54077Z" fill="#FD5158"/>
<path d="M12.9868 49.8704H15.7574C16.5332 49.8704 17.1427 50.4798 17.1427 51.2556C17.1427 52.0315 16.5332 52.6409 15.7574 52.6409H12.9868C12.2111 52.6409 11.6016 52.0315 11.6016 51.2556C11.6016 50.4798 12.2111 49.8704 12.9868 49.8704Z" fill="#FFBC18"/>
<path d="M1.90383 49.8704H7.44496C8.22073 49.8704 8.83023 50.4798 8.83023 51.2556C8.83023 52.0315 8.22073 52.6409 7.44496 52.6409H1.90383C1.12808 52.6409 0.518555 52.0315 0.518555 51.2556C0.518555 50.4798 1.12808 49.8704 1.90383 49.8704Z" fill="#1DB6B5"/>
<path d="M24.0664 27.7061H46.231C47.0068 27.7061 47.6162 28.3155 47.6162 29.0913C47.6162 29.8671 47.0068 30.4766 46.231 30.4766H24.0664C23.2906 30.4766 22.6812 29.8671 22.6812 29.0913C22.6812 28.3155 23.2906 27.7061 24.0664 27.7061Z" fill="#1DB6B5"/>
<path d="M10.2134 27.7061H18.5251C19.3009 27.7061 19.9104 28.3155 19.9104 29.0913C19.9104 29.8671 19.3009 30.4766 18.5251 30.4766H10.2134C9.43765 30.4766 8.82812 29.8671 8.82812 29.0913C8.82812 28.3155 9.43765 27.7061 10.2134 27.7061Z" fill="#FFBC18"/>
<path d="M1.90383 27.7061H4.6744C5.45016 27.7061 6.05967 28.3155 6.05967 29.0913C6.05967 29.8671 5.45016 30.4766 4.6744 30.4766H1.90383C1.12808 30.4766 0.518555 29.8671 0.518555 29.0913C0.518555 28.3155 1.12808 27.7061 1.90383 27.7061Z" fill="#FD5158"/>
<path d="M26.8364 11.0823H37.9186C38.6944 11.0823 39.3038 11.6918 39.3038 12.4676C39.3038 13.2433 38.6944 13.8528 37.9186 13.8528H26.8364C26.0606 13.8528 25.4509 13.2433 25.4509 12.4676C25.4509 11.6918 26.0606 11.0823 26.8364 11.0823Z" fill="#CF90C9"/>
<path d="M1.90383 11.0823H21.2977C22.0735 11.0823 22.683 11.6918 22.683 12.4676C22.683 13.2433 22.0735 13.8528 21.2977 13.8528H1.90383C1.12808 13.8528 0.518555 13.2433 0.518555 12.4676C0.518555 11.6918 1.12808 11.0823 1.90383 11.0823Z" fill="#1DB6B5"/>
<path d="M10.2134 38.7881H35.1485C35.9242 38.7881 36.5338 39.3975 36.5338 40.1734C36.5338 40.9492 35.9242 41.5586 35.1485 41.5586H10.2134C9.43765 41.5586 8.82812 40.9492 8.82812 40.1734C8.82812 39.3975 9.43765 38.7881 10.2134 38.7881Z" fill="#FFBC18"/>
<path d="M1.90383 38.7881H4.6744C5.45016 38.7881 6.05967 39.3975 6.05967 40.1734C6.05967 40.9492 5.45016 41.5586 4.6744 41.5586H1.90383C1.12808 41.5586 0.518555 40.9492 0.518555 40.1734C0.518555 39.3975 1.12808 38.7881 1.90383 38.7881Z" fill="#CF90C9"/>
<path d="M35.1494 16.6238H49.0023C49.778 16.6238 50.3876 17.2333 50.3876 18.0091C50.3876 18.7847 49.778 19.3944 49.0023 19.3944H35.1494C34.3738 19.3944 33.7642 18.7847 33.7642 18.0091C33.7642 17.2333 34.3738 16.6238 35.1494 16.6238Z" fill="#FD5158"/>
<path d="M35.1494 22.1643H49.0023C49.778 22.1643 50.3876 22.7739 50.3876 23.5496C50.3876 24.3254 49.778 24.9349 49.0023 24.9349H35.1494C34.3738 24.9349 33.7642 24.3254 33.7642 23.5496C33.7642 22.7739 34.3738 22.1643 35.1494 22.1643Z" fill="#FFBC18"/>
<path d="M1.90383 0H35.1506C35.9263 0 36.5359 0.609524 36.5359 1.38528C36.5359 2.16104 35.9263 2.77056 35.1506 2.77056H1.90383C1.12808 2.77056 0.518555 2.16104 0.518555 1.38528C0.518555 0.609524 1.12808 0 1.90383 0Z" fill="#1DB6B5"/>
<path d="M1.91262 16.6182H15.7654C16.5412 16.6182 17.1507 17.2278 17.1507 18.0034C17.1507 18.7793 16.5412 19.3887 15.7654 19.3887H1.91262C1.13687 19.3887 0.527344 18.7793 0.527344 18.0034C0.527344 17.2278 1.13687 16.6182 1.91262 16.6182Z" fill="#FFBC18"/>
</svg>
