<svg width="50" height="60" viewBox="0 0 50 60" fill="none" xmlns="http://www.w3.org/2000/svg">
<path fill-rule="evenodd" clip-rule="evenodd" d="M49.3592 45.7117L28.7253 1.89267C28.4689 1.3534 28.0715 0.893477 27.5751 0.561586C27.0787 0.229695 26.5019 0.0381845 25.9055 0.00732586C25.3082 -0.0326993 24.7113 0.0918361 24.1797 0.367388C23.6482 0.64294 23.2024 1.05896 22.8908 1.5702L0.511087 37.8178C0.170767 38.3651 -0.00646127 38.9981 0.000180033 39.6426C0.00682134 40.2871 0.197057 40.9163 0.548584 41.4565L11.4902 58.4006C11.9042 59.0367 12.5126 59.5218 13.2249 59.7838C13.9371 60.0457 14.715 60.0703 15.4424 59.854L47.1948 50.4618C47.6729 50.322 48.1154 50.0812 48.4924 49.7557C48.8694 49.4302 49.1722 49.0275 49.3802 48.5749C49.5853 48.1247 49.6898 47.6351 49.6864 47.1404C49.683 46.6456 49.5719 46.1576 49.3607 45.7102L49.3592 45.7117ZM44.7395 47.591L17.7957 55.5584C16.9738 55.8028 16.1848 55.0904 16.3558 54.261L25.982 8.16817C26.162 7.30574 27.3529 7.16925 27.7294 7.96719L45.5495 45.8091C45.6283 45.9778 45.6695 46.1615 45.6704 46.3476C45.6713 46.5337 45.6319 46.7178 45.5547 46.8872C45.4776 47.0566 45.3646 47.2073 45.2236 47.3288C45.0826 47.4503 44.9185 47.5397 44.7395 47.591Z" fill="white"/>
</svg>
