<svg width="100" height="100" viewBox="0 0 100 100" fill="none" xmlns="http://www.w3.org/2000/svg">
<path d="M69.2894 69.5572C72.9797 69.1564 75.7793 65.819 75.6519 61.8136C75.525 57.8086 72.3433 54.6043 68.5258 54.6043H68.2715C64.3262 54.7379 61.2723 58.2089 61.3996 62.3476C61.5269 64.3503 62.2902 66.0858 63.4355 67.2873C59.109 76.2325 52.4918 82.7742 42.566 88.248C35.8215 91.9862 28.8226 93.3213 21.8238 92.387C16.0973 91.5858 11.6434 88.916 8.84335 84.5097C4.77148 77.968 4.38984 70.892 7.82578 63.8163C10.2437 58.7429 14.0609 55.0047 16.4789 53.1356C15.9699 51.4001 15.2062 48.463 14.8246 46.3271C-3.62735 60.3452 -1.71836 79.3032 3.88085 88.248C8.08007 94.9237 16.6062 99.0623 26.023 99.0623C28.568 99.0623 31.1129 98.7951 33.6582 98.1279C49.9469 94.7901 62.2906 84.6433 69.2894 69.5572ZM91.6863 53.0024C82.0148 41.1201 67.7625 34.5784 51.4738 34.5784H49.4379C48.2926 32.1753 45.8746 30.573 43.2023 30.573H42.9476C39.0031 30.7066 35.9492 34.1776 36.0762 38.3167C36.2035 42.3217 39.3848 45.5259 43.2023 45.5259H43.4566C46.2562 45.3923 48.6742 43.5232 49.6922 40.9865H51.9828C61.6543 40.9865 70.8164 43.9236 79.0883 49.6645C85.4508 54.0703 90.032 59.8113 92.5769 66.7534C94.7402 72.3607 94.6129 77.8344 92.3223 82.5074C88.7594 89.5831 82.7785 93.4549 74.8887 93.4549C69.7984 93.4549 64.9629 91.8526 62.4176 90.6511C61.018 91.9862 58.4726 94.1221 56.691 95.4576C62.1633 98.1275 67.7625 99.5963 73.107 99.5963C85.3234 99.5963 94.3586 92.5202 97.7945 85.4445C101.485 77.7009 101.23 64.3503 91.6863 53.0024ZM27.041 71.8263C27.1684 75.8317 30.3496 79.0356 34.1672 79.0356H34.4219C38.3668 78.9024 41.4207 75.4309 41.2933 71.2923C41.1664 67.2869 37.9848 64.0831 34.1672 64.0831H33.9129C33.6582 64.0831 33.2762 64.0831 33.0223 64.2163C27.8047 55.1379 25.6414 45.2587 26.4051 34.578C26.9137 26.5676 29.459 19.6251 33.9129 13.8842C37.6031 8.94438 44.7293 6.54129 49.5652 6.4081C63.0539 6.14091 68.7801 23.7637 69.1621 30.8398C70.8164 31.2402 73.616 32.1749 75.525 32.8425C73.9976 11.2147 61.2723 0 49.0562 0C37.6031 0 27.041 8.67801 22.8414 21.4946C16.9879 38.5834 20.8055 55.0047 27.9316 67.9549C27.2957 68.8892 26.9137 70.3576 27.041 71.8263Z" fill="#CD00FF"/>
</svg>
