<svg width="60" height="50" viewBox="0 0 60 50" fill="none" xmlns="http://www.w3.org/2000/svg">
<path d="M29.2429 9.69312C22.7777 9.69312 18.738 12.9063 17.121 19.3325C19.5455 16.1194 22.3739 14.9147 25.6061 15.7175C27.4502 16.1754 28.7688 17.5055 30.2271 18.9781C32.6042 21.3761 35.3556 24.1513 41.3639 24.1513C47.8282 24.1513 51.8688 20.9381 53.4848 14.5128C51.0612 17.7259 48.2329 18.9306 45.0008 18.1269C43.1558 17.6689 41.837 16.3388 40.3786 14.8672C38.0015 12.4673 35.2511 9.69312 29.2429 9.69312ZM17.121 24.1513C10.6567 24.1513 6.61606 27.3644 5 33.7907C7.42458 30.5775 10.2529 29.3728 13.4841 30.1757C15.3292 30.6335 16.6478 31.9637 18.1062 33.4363C20.4833 35.8343 23.2338 38.6094 29.2429 38.6094C35.7071 38.6094 39.7479 35.3972 41.3639 28.971C38.9392 32.1841 36.1109 33.3888 32.8788 32.586C31.0347 32.127 29.7161 30.797 28.2577 29.3254C25.8806 26.9273 23.1292 24.1513 17.121 24.1513Z" fill="#00C0FE"/>
</svg>
