<svg width="100" height="100" viewBox="0 0 100 100" fill="none" xmlns="http://www.w3.org/2000/svg">
<path d="M93.3863 19.2063L52.3182 92.6428C51.4701 94.1588 49.292 94.1678 48.431 92.6591L6.54885 19.2131C5.61135 17.5688 7.01698 15.5772 8.8801 15.91L49.9926 23.2588C50.2548 23.3057 50.5233 23.3052 50.7854 23.2575L91.0379 15.9206C92.8948 15.5822 94.3076 17.5588 93.3863 19.2063Z" fill="url(#paint0_linear_51_73)"/>
<path d="M69.5764 6.27158L39.1849 12.2266C38.942 12.2741 38.7218 12.401 38.5589 12.5874C38.3961 12.7737 38.2998 13.0089 38.2852 13.2559L36.4158 44.8303C36.3721 45.5741 37.0549 46.1513 37.7805 45.9838L46.2421 44.0313C47.0339 43.8484 47.7493 44.5459 47.5864 45.3419L45.0727 57.6522C44.9033 58.4803 45.6811 59.1891 46.4902 58.9434L51.7164 57.3553C52.5268 57.1094 53.3052 57.82 53.1339 58.6491L49.1389 77.9856C48.8889 79.195 50.4977 79.8544 51.1686 78.8175L51.6168 78.125L76.3814 28.7025C76.7961 27.875 76.0814 26.9316 75.1721 27.1069L66.4627 28.7878C65.6439 28.9456 64.9477 28.1834 65.1786 27.3825L70.8633 7.67626C71.0946 6.87376 70.3958 6.11095 69.5764 6.27158Z" fill="url(#paint1_linear_51_73)"/>
<defs>
<linearGradient id="paint0_linear_51_73" x1="5.52615" y1="13.2852" x2="56.636" y2="82.6965" gradientUnits="userSpaceOnUse">
<stop stop-color="#CD00FF"/>
<stop offset="1" stop-color="#CD00FF"/>
</linearGradient>
<linearGradient id="paint1_linear_51_73" x1="47.6307" y1="7.88813" x2="56.8763" y2="71.3115" gradientUnits="userSpaceOnUse">
<stop stop-color="#CD00FF"/>
<stop offset="0.0833" stop-color="#CD00FF"/>
<stop offset="1" stop-color="white"/>
</linearGradient>
</defs>
</svg>
