<svg width="100" height="100" viewBox="0 0 100 100" fill="none" xmlns="http://www.w3.org/2000/svg">
<path d="M91.6328 76.6406L51.75 99.2188V81.6328L76.5625 67.9688L91.6328 76.6406ZM94.3672 74.1719V26.9922L79.7734 35.4297V65.75L94.3594 74.1641L94.3672 74.1719ZM8.36719 76.6406L48.2109 99.2031V81.6328L23.3906 67.9688L8.36719 76.6406ZM5.63281 74.1719V26.9922L20.2266 35.4297V65.75L5.63281 74.1719ZM7.34375 23.9375L48.25 0.78125V17.7812L22.0391 32.1953L21.8281 32.3125L7.34375 23.9375ZM92.6406 23.9375L51.75 0.78125V17.7812L77.9609 32.1875L78.1719 32.3047L92.6562 23.9375H92.6406ZM48.25 77.6328L23.7266 64.1406V37.4375L48.25 51.5625V77.6328ZM51.75 77.6328L76.2734 64.1563V37.4375L51.75 51.5625V77.6328ZM25.3906 34.375L50 20.8281L74.6094 34.375L50 48.5625L25.3906 34.375Z" fill="#CD00FF"/>
</svg>
