<svg width="60" height="60" viewBox="0 0 60 60" fill="none" xmlns="http://www.w3.org/2000/svg">
<path d="M55.3874 46.2431L31.0687 60V49.2881L46.2187 40.9519L55.3874 46.2431ZM57.0524 44.7375V15.975L48.1574 21.1163V39.6075L57.0524 44.7375ZM4.61617 46.2431L28.9312 60V49.2881L13.7718 40.95L4.61617 46.2431ZM2.95117 44.7375V15.975L11.8462 21.1163V39.6075L2.95117 44.7375ZM3.99367 14.1075L28.9312 0V10.3537L12.8249 19.2188L3.99367 14.1075ZM56.0062 14.1075L31.0687 0V10.3537L47.1749 19.2094L56.0062 14.1075Z" fill="#8ED6FB"/>
<path d="M28.9312 47.3194L13.98 39.0938V22.8113L28.9312 31.4438V47.3194ZM31.0687 47.3194L46.0219 39.1013V22.8075L31.0687 31.4438V47.3194ZM14.9925 20.9288L30 12.6807L45.0075 20.9307L30 29.5932L14.9925 20.9288Z" fill="#1C78C0"/>
</svg>
