<svg width="100" height="100" viewBox="0 0 100 100" fill="none" xmlns="http://www.w3.org/2000/svg">
<path d="M77.5313 63.0547C74.1407 63.0937 71.1719 64.8437 68.6641 66.4062C63.9766 69.3047 61.6328 69.1172 61.6328 69.1172L61.5547 68.9843C61.2344 68.4609 63.0547 63.7656 61.0157 58.1718C58.8125 52.0547 55.3125 50.5781 55.5938 50.1093C56.7891 48.0859 59.7813 44.875 60.9766 38.8906C61.6875 35.2656 61.5 29.2968 59.8907 26.1718C59.5938 25.5937 56.9375 27.1406 56.9375 27.1406C56.9375 27.1406 54.4532 21.6015 53.7578 21.1562C51.5157 19.7187 49.0703 27.1015 49.0703 27.1015C47.3771 26.9356 45.6685 27.167 44.0803 27.7773C42.4922 28.3876 41.0683 29.36 39.9219 30.6172C39.0721 31.4358 38.0418 32.0432 36.9141 32.3906C36.5938 32.5 36.2032 32.4843 35.2344 35.1015C33.75 39.0625 37.7657 43.5468 37.7657 43.5468C37.7657 43.5468 32.9766 46.9297 31.2032 51.1406C30.0187 54.0276 29.5496 57.1582 29.836 60.2656C29.836 60.2656 26.4297 63.2187 26.211 66.2656C26.0079 68.3999 26.4924 70.5433 27.5938 72.3828C27.6797 72.5664 27.8016 72.7309 27.9523 72.8665C28.1029 73.0022 28.2793 73.1062 28.4709 73.1725C28.6624 73.2388 28.8654 73.266 29.0677 73.2525C29.2699 73.2389 29.4674 73.1849 29.6485 73.0937C29.6485 73.0937 27.3828 75.7343 29.5 76.8515C31.4297 77.8593 34.6797 78.414 36.3985 76.7031C37.6485 75.4531 37.8985 72.664 38.3594 71.5234C38.4688 71.2578 38.8438 71.9687 39.2032 72.3047C39.5347 72.5946 39.8901 72.8559 40.2657 73.0859C40.2657 73.0859 37.2188 74.3984 38.4688 77.3906C38.8828 78.3828 40.3594 79.0156 42.7735 79C43.6719 79 53.5235 78.4375 56.1485 77.8047C56.9421 77.6787 57.6649 77.2743 58.1875 76.664C62.4499 75.3962 66.5208 73.5565 70.2891 71.1953C73.9922 68.7812 75.5079 68.125 78.5 67.414C80.9688 66.8281 80.8047 63 77.5313 63.0547Z" fill="#CD00FF"/>
<path d="M50 1.5625C40.42 1.5625 31.0551 4.40331 23.0896 9.72569C15.1241 15.0481 8.91573 22.613 5.24961 31.4638C1.58349 40.3146 0.624263 50.0537 2.49323 59.4497C4.36221 68.8456 8.97543 77.4764 15.7495 84.2505C22.5236 91.0246 31.1544 95.6378 40.5503 97.5068C49.9463 99.3758 59.6855 98.4165 68.5363 94.7504C77.387 91.0843 84.952 84.8759 90.2743 76.9104C95.5967 68.9449 98.4375 59.58 98.4375 50C98.4375 37.1536 93.3343 24.8333 84.2505 15.7495C75.1667 6.66572 62.8464 1.5625 50 1.5625ZM79.1406 70.1797C76.5235 70.8125 75.3047 71.3047 71.7891 73.5859C67.9938 75.9684 63.9083 77.8536 59.6328 79.1953C58.8067 79.8732 57.8324 80.3469 56.7891 80.5781C53.8125 81.3047 43.6016 81.8516 42.7969 81.8516H42.6094C39.4844 81.8516 37.711 80.8828 36.7578 79.8672C34.1016 81.1953 30.6641 80.6484 28.1641 79.3281C27.5655 79.0346 27.0426 78.607 26.6361 78.0786C26.2296 77.5502 25.9505 76.9351 25.8203 76.2812C25.7276 75.7488 25.7276 75.2043 25.8203 74.6719C25.5901 74.4318 25.3834 74.1702 25.2031 73.8906C23.7839 71.5292 23.1647 68.7728 23.4375 66.0312C23.6641 63.1172 25.6797 60.5156 26.9922 59.1328C26.8831 56.0094 27.4314 52.898 28.6016 50C29.8585 47.3047 31.6748 44.9078 33.9297 42.9688C32.6406 40.7969 31.3281 37.4531 32.6016 34.0469C33.5156 31.6172 34.2656 30.2656 35.9141 29.6875C36.6339 29.4799 37.302 29.1232 37.875 28.6406C40.2793 26.029 43.5981 24.4451 47.1406 24.2188C47.2891 23.8438 47.461 23.4375 47.6485 23.0781C48.8985 20.4219 50.2266 18.9297 51.7813 18.3906C52.3445 18.1801 52.9495 18.1057 53.5469 18.1736C54.1443 18.2415 54.7172 18.4497 55.2188 18.7812C55.7266 19.1172 56.375 19.5625 58.2657 23.4688C58.9817 23.2122 59.7599 23.1849 60.4922 23.3906C60.8917 23.4995 61.2642 23.6905 61.5857 23.9515C61.9072 24.2124 62.1707 24.5376 62.3594 24.9062C64.2891 28.6094 64.5469 35.2109 63.7031 39.4531C62.9544 43.2091 61.3976 46.7573 59.1406 49.8516C61.1593 51.9517 62.6974 54.4654 63.6485 57.2188C64.5779 59.8234 64.9531 62.5935 64.75 65.3516C65.59 64.9495 66.404 64.4955 67.1875 63.9922C69.5781 62.5156 73.1875 60.2891 77.4922 60.2344C78.798 60.147 80.0885 60.5579 81.1033 61.3842C82.1182 62.2106 82.782 63.391 82.961 64.6875C83.1242 65.9146 82.8228 67.1583 82.1159 68.1745C81.4091 69.1907 80.3478 69.9059 79.1406 70.1797Z" fill="#CD00FF"/>
</svg>
