<svg width="57" height="60" viewBox="0 0 57 60" fill="none" xmlns="http://www.w3.org/2000/svg">
<g clip-path="url(#clip0_85_370)">
<path d="M54.4602 42.5047C54.1527 40.0798 52.1034 38.4062 49.4734 38.4404C45.5458 38.4916 42.2498 40.5238 40.0638 41.8729C39.21 42.4024 38.4756 42.7951 37.8438 43.0855C37.9805 41.1045 37.8609 38.5087 36.8363 35.6567C35.5896 32.2413 33.916 30.1407 32.7207 28.9284C34.1038 26.9131 35.9994 23.9758 36.8874 19.4333C37.656 15.5567 37.4169 9.52842 35.658 6.14709C35.2992 5.464 34.7016 4.96876 33.9502 4.76384C33.6429 4.67844 33.0622 4.50767 31.918 4.83215C30.1932 1.26297 29.5954 0.887269 29.1343 0.579876C28.178 -0.034909 27.0509 -0.171528 25.9922 0.221251C24.5747 0.733573 23.3622 2.09976 22.218 4.52475C22.0472 4.88336 21.8936 5.22491 21.7569 5.56647C19.5882 5.72016 16.1726 6.50573 13.2866 9.63087C12.9279 10.0237 12.2278 10.314 11.4934 10.5872H11.5105C10.0077 11.1166 9.32462 12.3462 8.48782 14.5662C7.32657 17.6743 8.52199 20.7311 9.70031 22.7122C8.09506 24.1467 5.96039 26.4351 4.83328 29.1162C3.43293 32.4291 3.27922 35.6738 3.33046 37.4329C2.13504 38.6965 0.290692 41.0704 0.0857643 43.7344C-0.187473 47.4573 1.16164 49.9847 1.75934 50.9069C1.93011 51.1802 2.11797 51.4022 2.32289 51.6242C2.25458 52.0853 2.23751 52.5804 2.33997 53.0927C2.56199 54.2882 3.31339 55.2616 4.45757 55.8764C6.71179 57.0718 9.85402 57.5842 12.279 56.3716C13.1499 57.2938 14.7382 58.1818 17.6242 58.1818H17.795C18.5292 58.1818 27.8536 57.6865 30.5689 57.0205C31.7814 56.7302 32.6182 56.218 33.1647 55.7569C34.9065 55.2104 39.7223 53.5709 44.2649 50.6336C47.4754 48.5502 48.5854 48.1062 50.9763 47.5255C53.2989 46.962 54.7503 44.8444 54.4602 42.5047ZM50.3956 45.0151C47.6632 45.6642 46.28 46.2618 42.8987 48.4647C37.6218 51.8804 31.8496 53.4685 31.8496 53.4685C31.8496 53.4685 31.3714 54.1856 29.9882 54.5102C27.5974 55.0907 18.5976 55.586 17.7779 55.6031C15.5749 55.6202 14.2258 55.0396 13.8501 54.1345C12.7059 51.4022 15.4895 50.2067 15.4895 50.2067C15.4895 50.2067 14.8748 49.8309 14.5161 49.4895C14.1917 49.1649 13.8501 48.516 13.7477 48.7551C13.3207 49.7969 13.0987 52.3413 11.9545 53.4855C10.3834 55.0738 7.41195 54.5444 5.65299 53.6222C3.72324 52.5975 5.7896 50.1896 5.7896 50.1896C5.7896 50.1896 4.74789 50.8044 3.91109 49.5407C3.15969 48.3795 2.45951 46.3984 2.64737 43.9564C2.85229 41.1727 5.96037 38.4745 5.96037 38.4745C5.96037 38.4745 5.41389 34.3589 7.20702 30.1407C8.82937 26.2984 13.2012 23.2075 13.2012 23.2075C13.2012 23.2075 9.52955 19.1429 10.8957 15.4884C11.7838 13.0976 12.1424 13.1147 12.4327 13.0122C13.4573 12.6194 14.4478 12.1925 15.1821 11.3899C18.8538 7.42789 23.5331 8.17931 23.5331 8.17931C23.5331 8.17931 25.7531 1.43374 27.8023 2.74869C28.4342 3.15856 30.7054 8.21345 30.7054 8.21345C30.7054 8.21345 33.1305 6.79604 33.4038 7.32544C34.8723 10.1774 35.0431 15.625 34.3942 18.938C33.3012 24.4027 30.5689 27.3402 29.476 29.1845C29.2198 29.6115 32.4132 30.9605 34.4283 36.5447C36.2898 41.6509 34.6332 45.9373 34.9236 46.4155C34.9749 46.5009 34.992 46.5351 34.992 46.5351C34.992 46.5351 37.1265 46.7058 41.4131 44.0589C43.7014 42.6415 46.4167 41.0533 49.5076 41.0191C52.4962 40.9678 52.65 44.4687 50.3956 45.0151Z" fill="#0090BF"/>
</g>
<defs>
<clipPath id="clip0_85_370">
<rect width="56.3636" height="60" fill="white"/>
</clipPath>
</defs>
</svg>
